Coordinates
version=1
nRows=5
nColumns=40
inDegrees=yes

Units are S.I. units (second, meters, Newtons, ...)
If the header above contains a line with 'inDegrees', this indicates whether rotational values are in degrees (yes) or radians (no).

endheader
time	pelvis_tilt	pelvis_list	pelvis_rotation	pelvis_tx	pelvis_ty	pelvis_tz	hip_flexion_r	hip_adduction_r	hip_rotation_r	knee_angle_r	knee_angle_r_beta	ankle_angle_r	subtalar_angle_r	mtp_angle_r	hip_flexion_l	hip_adduction_l	hip_rotation_l	knee_angle_l	knee_angle_l_beta	ankle_angle_l	subtalar_angle_l	mtp_angle_l	lumbar_extension	lumbar_bending	lumbar_rotation	arm_flex_r	arm_add_r	arm_rot_r	elbow_flex_r	pro_sup_r	wrist_flex_r	wrist_dev_r	arm_flex_l	arm_add_l	arm_rot_l	elbow_flex_l	pro_sup_l	wrist_flex_l	wrist_dev_l
      0.53000000	      5.77350626	      6.49748165	     -3.02448076	      0.47031777	      0.91929374	     -0.26165387	     21.68659543	     -4.04768518	    -13.45448129	      8.03402360	      0.14022016	     -2.37668623	      0.00000000	      0.00000000	    -20.98520354	     13.44222456	     -9.06507070	      7.92843298	      0.13837726	     13.41504916	      0.00000000	      0.00000000	    -13.72735655	     -3.20155467	     -6.17385897	    -13.70838248	      5.20120416	    -25.18804585	     35.51112260	     86.99469698	      5.22254642	     11.91934171	     13.17207989	     -2.79622802	      2.38426563	     48.96813171	     87.77576342	     -2.55391894	     17.59575094
      0.54000000	      5.76631947	      6.30841549	     -2.78839164	      0.48409072	      0.91858500	     -0.26125306	     21.42457331	     -3.61023791	    -12.88169270	      7.50082522	      0.13091410	     -2.27765424	      0.00000000	      0.00000000	    -21.47496138	     13.02881502	     -9.11621843	      8.87329743	      0.15486826	     13.20885467	      0.00000000	      0.00000000	    -13.61505065	     -2.98607156	     -6.15706362	    -14.23794504	      5.30518499	    -25.89662788	     34.97005866	     87.08336359	      5.06664467	     12.51457069	     13.63313651	     -2.59077791	      2.12210363	     49.34138969	     87.72997718	     -2.55679663	     17.55368607
      0.55000000	      6.00329539	      5.87548715	     -2.69450000	      0.49818116	      0.91831810	     -0.26074692	     20.86003424	     -2.97383593	    -12.35728553	      7.33225039	      0.12797191	     -2.22815363	      0.00000000	      0.00000000	    -22.22044297	     12.41557701	     -9.37128220	      9.80740147	      0.17117145	     12.80968574	      0.00000000	      0.00000000	    -13.79047749	     -2.48294943	     -5.98757258	    -14.79554802	      5.44881682	    -27.05747271	     34.98751638	     87.37941743	      5.18430704	     15.10898106	     13.95699486	     -2.29932675	      1.80046024	     49.87564061	     87.70686350	     -2.49775699	     17.32674225
      0.56000000	      5.97107657	      5.62302714	     -2.45169397	      0.51258264	      0.91796202	     -0.26030847	     20.59687449	     -2.62499299	    -11.75864786	      7.62293652	      0.13304534	     -1.87701952	      0.00000000	      0.00000000	    -22.62603462	     11.89482321	     -9.35626398	     10.89665161	      0.19018245	     12.19767907	      0.00000000	      0.00000000	    -13.55172318	     -2.20253740	     -6.02766461	    -15.27110418	      5.46829658	    -27.43717609	     34.42158568	     87.32661380	      5.24508518	     15.48413302	     14.12914439	     -2.13094644	      1.69704794	     50.30943361	     87.62345453	     -2.50960452	     17.20664887
      0.57000000	      5.90172300	      5.26698853	     -2.30945510	      0.52721184	      0.91774070	     -0.25989143	     20.36363730	     -2.20275455	    -11.18183931	      8.17939973	      0.14275746	     -1.78237889	      0.00000000	      0.00000000	    -23.02603313	     11.32710211	     -9.05522789	     11.86545168	      0.20709120	     11.33288604	      0.00000000	      0.00000000	    -13.29934829	     -1.81414024	     -5.89596893	    -15.77661228	      5.43120270	    -27.66309811	     33.98265134	     87.32047232	      5.21972725	     15.69652809	     14.18754670	     -1.89038142	      1.66482487	     50.83428863	     87.56274508	     -2.50881857	     17.10229872
